<svg xmlns="http://www.w3.org/2000/svg" width="20" height="20" viewBox="0 0 25 25" fill="#fff" >
    <path d="M5.84919 21.8752C5.36976 21.8752 4.96946 21.7146 4.64827 21.3934C4.32709 21.0722 4.1665 20.6719 4.1665 20.1925V6.89117C4.1665 6.41174 4.32709 6.01144 4.64827 5.69026C4.96946 5.36908 5.36976 5.20849 5.84919 5.20849H7.69213V2.88477H8.81393V5.20849H16.2659V2.88477H17.3075V5.20849H19.1505C19.6299 5.20849 20.0302 5.36908 20.3514 5.69026C20.6726 6.01144 20.8332 6.41174 20.8332 6.89117V20.1925C20.8332 20.6719 20.6726 21.0722 20.3514 21.3934C20.0302 21.7146 19.6299 21.8752 19.1505 21.8752H5.84919ZM5.84919 20.8335H19.1505C19.3107 20.8335 19.4576 20.7667 19.5912 20.6332C19.7247 20.4996 19.7915 20.3527 19.7915 20.1925V11.0578H5.20817V20.1925C5.20817 20.3527 5.27494 20.4996 5.40848 20.6332C5.54204 20.7667 5.68894 20.8335 5.84919 20.8335ZM5.20817 10.0162H19.7915V6.89117C19.7915 6.73093 19.7247 6.58403 19.5912 6.45047C19.4576 6.31693 19.3107 6.25016 19.1505 6.25016H5.84919C5.68894 6.25016 5.54204 6.31693 5.40848 6.45047C5.27494 6.58403 5.20817 6.73093 5.20817 6.89117V10.0162Z" fill="#fff" />
</svg>