<svg xmlns="http://www.w3.org/2000/svg" width="20" height="20" viewBox="0 0 25 25" fill="#fff">
    <path d="M18.1891 20.8335H7.73237V9.37514L14.2628 2.9248L14.7236 3.38556C14.8184 3.48037 14.8982 3.6019 14.9629 3.75014C15.0277 3.89837 15.0601 4.03459 15.0601 4.15879V4.32306L13.9944 9.37514H21.234C21.6693 9.37514 22.0586 9.54675 22.4018 9.88996C22.7451 10.2332 22.9167 10.6225 22.9167 11.0578V12.3399C22.9167 12.4347 22.906 12.5382 22.8846 12.6504C22.8633 12.7626 22.8352 12.8661 22.8005 12.9609L19.9559 19.7037C19.813 20.0242 19.5727 20.2926 19.2348 20.509C18.8969 20.7253 18.5483 20.8335 18.1891 20.8335ZM8.77404 19.7918H18.1891C18.336 19.7918 18.4862 19.7518 18.6398 19.6716C18.7934 19.5915 18.9103 19.4579 18.9904 19.271L21.875 12.5001V11.0578C21.875 10.8709 21.8149 10.7173 21.6947 10.5971C21.5745 10.4769 21.4209 10.4168 21.234 10.4168H12.7003L13.9062 4.7277L8.77404 9.81986V19.7918ZM7.73237 9.37514V10.4168H4.16667V19.7918H7.73237V20.8335H3.125V9.37514H7.73237Z" fill="#fff" />
</svg>