<svg xmlns="http://www.w3.org/2000/svg" width="25" height="25" viewBox="0 0 25 25" fill="none">
    <path d="M12.4958 16.887C12.7269 16.887 12.9215 16.8079 13.0798 16.6496C13.238 16.4914 13.3172 16.2967 13.3172 16.0657C13.3172 15.8347 13.238 15.64 13.0798 15.4818C12.9215 15.3235 12.7269 15.2444 12.4958 15.2444C12.2648 15.2444 12.0701 15.3235 11.9119 15.4818C11.7536 15.64 11.6745 15.8347 11.6745 16.0657C11.6745 16.2967 11.7536 16.4914 11.9119 16.6496C12.0701 16.8079 12.2648 16.887 12.4958 16.887ZM11.959 13.4375H12.9646C12.9779 13.2091 13.001 13.0108 13.0337 12.8426C13.0664 12.6743 13.1262 12.508 13.213 12.3438C13.2998 12.1795 13.4116 12.0149 13.5485 11.8499C13.6854 11.685 13.8553 11.5011 14.0583 11.2981C14.5591 10.7973 14.922 10.3629 15.1471 9.995C15.3721 9.62707 15.4846 9.20939 15.4846 8.74198C15.4846 7.92868 15.2055 7.2733 14.6473 6.77583C14.0891 6.27837 13.4073 6.02964 12.602 6.02964C11.8608 6.02964 11.2228 6.22728 10.6879 6.62258C10.1531 7.01789 9.76211 7.49199 9.51505 8.04487L10.4726 8.44151C10.6475 8.02618 10.8973 7.68196 11.2218 7.40885C11.5463 7.13575 11.985 6.99919 12.5379 6.99919C13.1936 6.99919 13.6811 7.17848 14.0002 7.53706C14.3194 7.89563 14.479 8.30329 14.479 8.76003C14.479 9.10857 14.3835 9.42774 14.1925 9.71755C14.0016 10.0073 13.7338 10.3118 13.3893 10.631C13.1342 10.8741 12.9155 11.1061 12.7332 11.3271C12.5509 11.5481 12.399 11.7688 12.2775 11.9892C12.1559 12.2095 12.0725 12.4362 12.0271 12.6693C11.9817 12.9023 11.959 13.1584 11.959 13.4375ZM12.4998 22.476L9.81554 19.7917H5.84919C5.36976 19.7917 4.96946 19.6311 4.64827 19.3099C4.32709 18.9887 4.1665 18.5884 4.1665 18.109V4.80768C4.1665 4.32825 4.32709 3.92795 4.64827 3.60677C4.96946 3.28559 5.36976 3.125 5.84919 3.125H19.1505C19.6299 3.125 20.0302 3.28559 20.3514 3.60677C20.6726 3.92795 20.8332 4.32825 20.8332 4.80768V18.109C20.8332 18.5884 20.6726 18.9887 20.3514 19.3099C20.0302 19.6311 19.6299 19.7917 19.1505 19.7917H15.1841L12.4998 22.476ZM5.84919 18.75H10.2482L12.4998 21.0016L14.7515 18.75H19.1505C19.3375 18.75 19.491 18.6899 19.6112 18.5697C19.7314 18.4495 19.7915 18.2959 19.7915 18.109V4.80768C19.7915 4.62072 19.7314 4.46714 19.6112 4.34695C19.491 4.22676 19.3375 4.16667 19.1505 4.16667H5.84919C5.66222 4.16667 5.50865 4.22676 5.38846 4.34695C5.26827 4.46714 5.20817 4.62072 5.20817 4.80768V18.109C5.20817 18.2959 5.26827 18.4495 5.38846 18.5697C5.50865 18.6899 5.66222 18.75 5.84919 18.75Z" fill="black" />
</svg>