<svg xmlns="http://www.w3.org/2000/svg" width="20" height="20" viewBox="0 0 25 25" fill="#fff">
                                            <path d="M10.4168 14.0625H14.0426V13.0208H10.4168V14.0625ZM10.4168 10.9375H17.6684V9.89583H10.4168V10.9375ZM10.4168 7.8125H17.6684V6.77083H10.4168V7.8125ZM8.45368 17.7083C7.97425 17.7083 7.57395 17.5477 7.25277 17.2266C6.93159 16.9054 6.771 16.5051 6.771 16.0257V4.80768C6.771 4.32826 6.93159 3.92795 7.25277 3.60677C7.57395 3.28559 7.97425 3.125 8.45368 3.125H19.6716C20.1511 3.125 20.5514 3.28559 20.8726 3.60677C21.1937 3.92795 21.3543 4.32826 21.3543 4.80768V16.0257C21.3543 16.5051 21.1937 16.9054 20.8726 17.2266C20.5514 17.5477 20.1511 17.7083 19.6716 17.7083H8.45368ZM8.45368 16.6667H19.6716C19.8319 16.6667 19.9788 16.5999 20.1124 16.4664C20.2459 16.3328 20.3127 16.1859 20.3127 16.0257V4.80768C20.3127 4.64744 20.2459 4.50054 20.1124 4.36698C19.9788 4.23344 19.8319 4.16667 19.6716 4.16667H8.45368C8.29344 4.16667 8.14653 4.23344 8.01298 4.36698C7.87943 4.50054 7.81266 4.64744 7.81266 4.80768V16.0257C7.81266 16.1859 7.87943 16.3328 8.01298 16.4664C8.14653 16.5999 8.29344 16.6667 8.45368 16.6667ZM5.32868 20.8333C4.84925 20.8333 4.44895 20.6727 4.12777 20.3516C3.80659 20.0304 3.646 19.6301 3.646 19.1507V6.89102H4.68766V19.1507C4.68766 19.3109 4.75443 19.4578 4.88798 19.5914C5.02152 19.7249 5.16842 19.7917 5.32868 19.7917H17.5883V20.8333H5.32868Z" fill="#fff" />
                                        </svg>