<svg xmlns="http://www.w3.org/2000/svg" width="20" height="20" viewBox="0 0 30 30" fill="none">
  <path d="M24.7908 26.5745L21.4855 23.2692H6.24995V21.2115C6.24995 20.6955 6.40019 20.2127 6.70067 19.7632C7.00114 19.3136 7.40539 18.9647 7.91342 18.7163C9.01117 18.189 10.1085 17.7876 11.2055 17.512C12.3024 17.2363 13.399 17.0817 14.4951 17.048H14.8918C15.028 17.048 15.1602 17.056 15.2884 17.0721L3.42542 5.20907L4.31726 4.31726L25.6826 25.6826L24.7908 26.5745ZM7.49995 22.0192H20.2355L16.6057 18.3894C16.3237 18.3573 16.056 18.3293 15.8028 18.3052C15.5496 18.2812 15.282 18.2692 14.9999 18.2692C13.8814 18.2692 12.7772 18.4018 11.6874 18.667C10.5977 18.9322 9.53841 19.3141 8.50957 19.8125C8.19386 19.9807 7.94667 20.1866 7.76798 20.4302C7.58929 20.6738 7.49995 20.9343 7.49995 21.2115V22.0192ZM22.6153 18.9807C22.7548 19.048 22.8653 19.1502 22.9471 19.2872C23.0288 19.4242 23.0721 19.5721 23.0769 19.7307L22.1105 18.7644C22.1971 18.798 22.2824 18.8317 22.3665 18.8653C22.4507 18.899 22.5336 18.9374 22.6153 18.9807ZM17.1009 13.5865L16.1947 12.6802C16.5937 12.4607 16.911 12.1534 17.1466 11.7584C17.3822 11.3633 17.4999 10.9375 17.4999 10.4807C17.4999 9.79323 17.2552 9.20469 16.7656 8.71511C16.276 8.22552 15.6874 7.98073 14.9999 7.98073C14.5432 7.98073 14.1173 8.09851 13.7223 8.33407C13.3273 8.56966 13.02 8.88697 12.8004 9.28601L11.8942 8.37976C12.2451 7.8477 12.693 7.43984 13.2379 7.1562C13.7828 6.87253 14.3701 6.7307 14.9999 6.7307C16.0384 6.7307 16.923 7.09608 17.6538 7.82686C18.3846 8.55763 18.7499 9.44225 18.7499 10.4807C18.7499 11.1105 18.6081 11.6979 18.3245 12.2427C18.0408 12.7876 17.633 13.2355 17.1009 13.5865Z" fill="#2A3941"/>
</svg>