 <svg xmlns="http://www.w3.org/2000/svg" width="25" height="25" viewBox="0 0 25 25" fill="none">
    <path d="M20.297 20.9936L13.7745 14.4712C13.2537 14.9145 12.6547 15.2577 11.9776 15.5008C11.3005 15.7439 10.6201 15.8654 9.93635 15.8654C8.26795 15.8654 6.85593 15.2879 5.70029 14.1329C4.54463 12.9778 3.9668 11.5666 3.9668 9.89908C3.9668 8.23158 4.54431 6.81924 5.69932 5.66205C6.85434 4.50486 8.2656 3.92627 9.9331 3.92627C11.6006 3.92627 13.013 4.50409 14.1701 5.65973C15.3273 6.81538 15.9059 8.22741 15.9059 9.89583C15.9059 10.6196 15.7777 11.3201 15.5213 11.9972C15.2649 12.6743 14.9284 13.2532 14.5117 13.734L21.0341 20.2564L20.297 20.9936ZM9.93635 14.8237C11.3186 14.8237 12.4854 14.348 13.437 13.3964C14.3885 12.4449 14.8642 11.278 14.8642 9.89583C14.8642 8.51362 14.3885 7.34676 13.437 6.39523C12.4854 5.4437 11.3186 4.96794 9.93635 4.96794C8.55415 4.96794 7.38728 5.4437 6.43576 6.39523C5.48424 7.34676 5.00849 8.51362 5.00849 9.89583C5.00849 11.278 5.48424 12.4449 6.43576 13.3964C7.38728 14.348 8.55415 14.8237 9.93635 14.8237Z" fill="black" />
</svg>