<svg xmlns="http://www.w3.org/2000/svg" width="20" height="20" viewBox="0 0 25 25" fill="#fff">
                                            <path d="M3.125 20.9135V4.80768C3.125 4.32825 3.28559 3.92795 3.60677 3.60677C3.92795 3.28559 4.32826 3.125 4.80768 3.125H20.1923C20.6717 3.125 21.072 3.28559 21.3932 3.60677C21.7144 3.92795 21.875 4.32825 21.875 4.80768V16.0257C21.875 16.5051 21.7144 16.9054 21.3932 17.2266C21.072 17.5477 20.6717 17.7083 20.1923 17.7083H6.33013L3.125 20.9135ZM5.88542 16.6667H20.1923C20.3526 16.6667 20.4995 16.5999 20.633 16.4664C20.7666 16.3328 20.8333 16.1859 20.8333 16.0257V4.80768C20.8333 4.64744 20.7666 4.50054 20.633 4.36698C20.4995 4.23344 20.3526 4.16667 20.1923 4.16667H4.80768C4.64744 4.16667 4.50054 4.23344 4.36698 4.36698C4.23344 4.50054 4.16667 4.64744 4.16667 4.80768V18.3794L5.88542 16.6667Z" fill="#fff" />
                                        </svg>