<svg xmlns="http://www.w3.org/2000/svg" width="32" height="32" viewBox="0 0 35 35" fill="none">
                                                    <path d="M26.2536 31.3543C25.2418 31.3543 24.3807 30.9999 23.6702 30.2909C22.9597 29.5821 22.6045 28.7212 22.6045 27.7085C22.6045 27.5146 22.6213 27.3137 22.655 27.1059C22.6886 26.8981 22.7391 26.7026 22.8064 26.5194L11.5155 19.8671C11.1584 20.2691 10.7434 20.5828 10.2703 20.8081C9.79734 21.0334 9.29066 21.146 8.75033 21.146C7.73759 21.146 6.87677 20.7919 6.16787 20.0836C5.45895 19.3753 5.10449 18.5153 5.10449 17.5034C5.10449 16.4916 5.45895 15.6305 6.16787 14.92C6.87677 14.2096 7.73759 13.8543 8.75033 13.8543C9.29066 13.8543 9.79734 13.967 10.2703 14.1923C10.7434 14.4175 11.1584 14.7312 11.5155 15.1332L22.8064 8.48092C22.7391 8.2977 22.6886 8.1022 22.655 7.89441C22.6213 7.68663 22.6045 7.48576 22.6045 7.29183C22.6045 6.27909 22.9586 5.41827 23.6669 4.70938C24.3752 4.00046 25.2352 3.646 26.247 3.646C27.2589 3.646 28.12 4.00013 28.8304 4.70839C29.5409 5.41668 29.8962 6.27672 29.8962 7.28851C29.8962 8.30035 29.5417 9.1615 28.8328 9.87195C28.1239 10.5824 27.2631 10.9377 26.2503 10.9377C25.71 10.9377 25.2033 10.825 24.7303 10.5997C24.2573 10.3744 23.8422 10.0608 23.4851 9.65881L12.1943 16.3111C12.2616 16.4943 12.312 16.6891 12.3457 16.8956C12.3793 17.1021 12.3962 17.3016 12.3962 17.4944C12.3962 17.6871 12.3793 17.8886 12.3457 18.0989C12.312 18.3093 12.2616 18.506 12.1943 18.6892L23.4851 25.3415C23.8422 24.9395 24.2573 24.6259 24.7303 24.4006C25.2033 24.1753 25.71 24.0627 26.2503 24.0627C27.2631 24.0627 28.1239 24.4168 28.8328 25.1251C29.5417 25.8333 29.8962 26.6934 29.8962 27.7052C29.8962 28.717 29.542 29.5782 28.8338 30.2886C28.1255 30.9991 27.2654 31.3543 26.2536 31.3543ZM26.2503 9.47933C26.8505 9.47933 27.3651 9.26478 27.7942 8.83569C28.2233 8.4066 28.4378 7.89198 28.4378 7.29183C28.4378 6.69168 28.2233 6.17705 27.7942 5.74796C27.3651 5.31887 26.8505 5.10433 26.2503 5.10433C25.6502 5.10433 25.1356 5.31887 24.7065 5.74796C24.2774 6.17705 24.0628 6.69168 24.0628 7.29183C24.0628 7.89198 24.2774 8.4066 24.7065 8.83569C25.1356 9.26478 25.6502 9.47933 26.2503 9.47933ZM8.75033 19.6877C9.35048 19.6877 9.8651 19.4731 10.2942 19.044C10.7233 18.6149 10.9378 18.1003 10.9378 17.5002C10.9378 16.9 10.7233 16.3854 10.2942 15.9563C9.8651 15.5272 9.35048 15.3127 8.75033 15.3127C8.15017 15.3127 7.63555 15.5272 7.20646 15.9563C6.77737 16.3854 6.56283 16.9 6.56283 17.5002C6.56283 18.1003 6.77737 18.6149 7.20646 19.044C7.63555 19.4731 8.15017 19.6877 8.75033 19.6877ZM26.2503 29.896C26.8505 29.896 27.3651 29.6814 27.7942 29.2524C28.2233 28.8233 28.4378 28.3086 28.4378 27.7085C28.4378 27.1083 28.2233 26.5937 27.7942 26.1646C27.3651 25.7355 26.8505 25.521 26.2503 25.521C25.6502 25.521 25.1356 25.7355 24.7065 26.1646C24.2774 26.5937 24.0628 27.1083 24.0628 27.7085C24.0628 28.3086 24.2774 28.8233 24.7065 29.2524C25.1356 29.6814 25.6502 29.896 26.2503 29.896Z" fill="#fff" />
                                                </svg>