<svg xmlns="http://www.w3.org/2000/svg" width="25" height="25" viewBox="0 0 25 25" fill="#5d5fe3">
<path d="M6.25 20.3123V5.84919C6.25 5.36976 6.41059 4.96946 6.73177 4.64827C7.05295 4.32709 7.45325 4.1665 7.93268 4.1665H17.0673C17.5467 4.1665 17.947 4.32709 18.2682 4.64827C18.5894 4.96946 18.75 5.36976 18.75 5.84919V20.3123L12.5 17.628L6.25 20.3123ZM7.29167 18.6978L12.5 16.4582L17.7083 18.6978V5.84919C17.7083 5.68894 17.6416 5.54204 17.508 5.40848C17.3745 5.27494 17.2276 5.20817 17.0673 5.20817H7.93268C7.77244 5.20817 7.62554 5.27494 7.49198 5.40848C7.35844 5.54204 7.29167 5.68894 7.29167 5.84919V18.6978Z" fill="#5d5fe3" />
</svg>