<svg xmlns="http://www.w3.org/2000/svg" width="25" height="25" viewBox="0 0 35 35" fill="none">
    <path d="M20.2482 13.9886V12.6312C21.0316 12.2348 21.8706 11.9376 22.7653 11.7394C23.6599 11.5412 24.5784 11.4421 25.5207 11.4421C26.0591 11.4421 26.5761 11.4767 27.0716 11.5459C27.567 11.615 28.0784 11.7132 28.6056 11.8403V13.1641C28.097 13.0014 27.6011 12.8888 27.1178 12.8261C26.6345 12.7635 26.1021 12.7322 25.5207 12.7322C24.5784 12.7322 23.6585 12.8383 22.7611 13.0505C21.8636 13.2627 21.026 13.5754 20.2482 13.9886ZM20.2482 21.9533V20.5399C20.9942 20.1435 21.8286 19.8462 22.7512 19.648C23.6739 19.4498 24.5971 19.3507 25.5207 19.3507C26.0591 19.3507 26.5761 19.3853 27.0716 19.4545C27.567 19.5237 28.0784 19.6218 28.6056 19.749V21.0727C28.097 20.9101 27.6011 20.7974 27.1178 20.7348C26.6345 20.6721 26.1021 20.6408 25.5207 20.6408C24.5784 20.6408 23.6585 20.7549 22.7611 20.983C21.8636 21.2111 21.026 21.5345 20.2482 21.9533ZM20.2482 17.999V16.5855C21.0316 16.1892 21.8706 15.8919 22.7653 15.6937C23.6599 15.4955 24.5784 15.3964 25.5207 15.3964C26.0591 15.3964 26.5761 15.431 27.0716 15.5002C27.567 15.5694 28.0784 15.6675 28.6056 15.7947V17.1184C28.097 16.9557 27.6011 16.8431 27.1178 16.7804C26.6345 16.7178 26.1021 16.6865 25.5207 16.6865C24.5784 16.6865 23.6585 16.8019 22.7611 17.0328C21.8636 17.2637 21.026 17.5858 20.2482 17.999ZM9.479 23.3892C10.7523 23.3892 11.9904 23.5355 13.1936 23.8281C14.3967 24.1207 15.5891 24.597 16.7707 25.257V10.9485C15.718 10.1969 14.5579 9.63322 13.2903 9.2574C12.0227 8.88161 10.7523 8.69372 9.479 8.69372C8.604 8.69372 7.8379 8.74606 7.18071 8.85075C6.52353 8.95546 5.79391 9.1499 4.99182 9.43408C4.76746 9.50887 4.60854 9.61637 4.51506 9.75659C4.42158 9.89683 4.37484 10.0511 4.37484 10.2194V23.3668C4.37484 23.6285 4.46832 23.8202 4.65527 23.9417C4.84226 24.0632 5.04792 24.0772 5.27226 23.9838C5.80511 23.8043 6.4207 23.6603 7.11902 23.5519C7.81734 23.4434 8.604 23.3892 9.479 23.3892ZM18.229 25.257C19.4106 24.597 20.603 24.1207 21.8061 23.8281C23.0092 23.5355 24.2474 23.3892 25.5207 23.3892C26.3957 23.3892 27.1823 23.4434 27.8807 23.5519C28.579 23.6603 29.1946 23.8043 29.7274 23.9838C29.9518 24.0772 30.1574 24.0632 30.3444 23.9417C30.5314 23.8202 30.6248 23.6285 30.6248 23.3668V10.2194C30.6248 10.0511 30.5781 9.90151 30.4846 9.77063C30.3911 9.63974 30.2322 9.52756 30.0079 9.43408C29.2058 9.1499 28.4761 8.95546 27.819 8.85075C27.1618 8.74606 26.3957 8.69372 25.5207 8.69372C24.2474 8.69372 22.977 8.88161 21.7094 9.2574C20.4418 9.63322 19.2816 10.1969 18.229 10.9485V25.257ZM17.4998 27.3716C16.3145 26.5602 15.0412 25.9366 13.6801 25.501C12.319 25.0654 10.9186 24.8476 9.479 24.8476C8.71992 24.8476 7.97439 24.9111 7.24243 25.0383C6.51045 25.1654 5.79764 25.3692 5.104 25.6497C4.5749 25.8609 4.07803 25.7973 3.6134 25.4589C3.1488 25.1205 2.9165 24.6531 2.9165 24.0567V9.96134C2.9165 9.60048 3.01138 9.2658 3.20113 8.95732C3.39091 8.64883 3.65688 8.43382 3.99902 8.31229C4.85533 7.93461 5.74623 7.6607 6.67171 7.49056C7.59719 7.32042 8.53296 7.23535 9.479 7.23535C10.9074 7.23535 12.3008 7.44101 13.6591 7.85233C15.0174 8.26366 16.2976 8.86195 17.4998 9.64722C18.702 8.86195 19.9823 8.26366 21.3406 7.85233C22.6989 7.44101 24.0923 7.23535 25.5207 7.23535C26.4667 7.23535 27.4025 7.32042 28.328 7.49056C29.2534 7.6607 30.1443 7.93461 31.0006 8.31229C31.3428 8.43382 31.6088 8.64883 31.7985 8.95732C31.9883 9.2658 32.0832 9.60048 32.0832 9.96134V24.0567C32.0832 24.6531 31.8322 25.1112 31.3302 25.4309C30.8282 25.7506 30.2939 25.8048 29.7274 25.5935C29.0525 25.3318 28.363 25.142 27.6591 25.0242C26.9552 24.9065 26.2423 24.8476 25.5207 24.8476C24.081 24.8476 22.6807 25.0654 21.3195 25.501C19.9584 25.9366 18.6852 26.5602 17.4998 27.3716Z" fill="#FF845D" />
</svg>