<svg xmlns="http://www.w3.org/2000/svg" width="25" height="25" viewBox="0 0 35 35" fill="none">
  <path d="M16.7709 25.9135H18.2292V19.0677L21.2917 22.1302L22.3237 21.0898L17.5 16.266L12.6763 21.0898L13.7168 22.1218L16.7709 19.0677V25.9135ZM9.64744 30.625C8.97624 30.625 8.41582 30.4002 7.96617 29.9505C7.51651 29.5009 7.29169 28.9404 7.29169 28.2692V6.73075C7.29169 6.05956 7.51651 5.49913 7.96617 5.04948C8.41582 4.59983 8.97624 4.375 9.64744 4.375H21.1459L27.7084 10.9375V28.2692C27.7084 28.9404 27.4835 29.5009 27.0339 29.9505C26.5842 30.4002 26.0238 30.625 25.3526 30.625H9.64744ZM20.4167 11.6667V5.83333H9.64744C9.4231 5.83333 9.21744 5.92681 9.03046 6.11377C8.8435 6.30075 8.75002 6.50641 8.75002 6.73075V28.2692C8.75002 28.4936 8.8435 28.6992 9.03046 28.8862C9.21744 29.0732 9.4231 29.1667 9.64744 29.1667H25.3526C25.5769 29.1667 25.7826 29.0732 25.9696 28.8862C26.1565 28.6992 26.25 28.4936 26.25 28.2692V11.6667H20.4167Z" fill="#FF845D"/>
</svg>