<svg xmlns="http://www.w3.org/2000/svg" width="25" height="25" viewBox="0 0 35 35" fill="none">
  <path d="M25.4648 29.1666H10.8253V13.125L19.9679 4.09448L20.613 4.73954C20.7457 4.87227 20.8574 5.04241 20.9481 5.24996C21.0388 5.45748 21.0841 5.64818 21.0841 5.82206V6.05204L19.5922 13.125H29.7276C30.3371 13.125 30.8821 13.3652 31.3626 13.8457C31.8431 14.3262 32.0833 14.8712 32.0833 15.4807V17.2756C32.0833 17.4083 32.0684 17.5532 32.0385 17.7103C32.0086 17.8673 31.9693 18.0122 31.9207 18.145L27.9383 27.5849C27.7383 28.0336 27.4017 28.4094 26.9287 28.7123C26.4557 29.0152 25.9677 29.1666 25.4648 29.1666ZM12.2837 27.7083H25.4648C25.6704 27.7083 25.8807 27.6522 26.0957 27.54C26.3108 27.4278 26.4744 27.2409 26.5865 26.9791L30.625 17.5V15.4807C30.625 15.219 30.5409 15.004 30.3726 14.8357C30.2043 14.6674 29.9893 14.5833 29.7276 14.5833H17.7804L19.4688 6.61853L12.2837 13.7476V27.7083ZM10.8253 13.125V14.5833H5.83333V27.7083H10.8253V29.1666H4.375V13.125H10.8253Z" fill="#FF845D"/>
</svg>